<mxfile host="app.diagrams.net" modified="2024-05-28T16:47:15.729Z" agent="Mozilla/5.0 (Windows NT 10.0; Win64; x64) AppleWebKit/537.36 (KHTML, like Gecko) Chrome/125.0.0.0 Safari/537.36 Herring/90.1.1420.5" etag="R-VEf12kqNApnvSe8iAt" version="24.4.9" type="github">
  <diagram name="Page-1" id="9f46799a-70d6-7492-0946-bef42562c5a5">
    <mxGraphModel dx="2100" dy="1114" grid="1" gridSize="10" guides="1" tooltips="1" connect="1" arrows="1" fold="1" page="1" pageScale="1" pageWidth="1100" pageHeight="850" background="none" math="0" shadow="0">
      <root>
        <mxCell id="0" />
        <mxCell id="1" parent="0" />
        <mxCell id="78961159f06e98e8-17" value="Frontend" style="swimlane;html=1;fontStyle=1;align=center;verticalAlign=top;childLayout=stackLayout;horizontal=1;startSize=26;horizontalStack=0;resizeParent=1;resizeLast=0;collapsible=1;marginBottom=0;swimlaneFillColor=#ffffff;rounded=0;shadow=0;comic=0;labelBackgroundColor=none;strokeWidth=1;fillColor=none;fontFamily=Verdana;fontSize=12" parent="1" vertex="1">
          <mxGeometry x="70" y="108" width="160" height="227" as="geometry" />
        </mxCell>
        <mxCell id="78961159f06e98e8-21" value="React" style="text;html=1;strokeColor=none;fillColor=none;align=left;verticalAlign=top;spacingLeft=4;spacingRight=4;whiteSpace=wrap;overflow=hidden;rotatable=0;points=[[0,0.5],[1,0.5]];portConstraint=eastwest;" parent="78961159f06e98e8-17" vertex="1">
          <mxGeometry y="26" width="160" height="26" as="geometry" />
        </mxCell>
        <mxCell id="78961159f06e98e8-19" value="" style="line;html=1;strokeWidth=1;fillColor=none;align=left;verticalAlign=middle;spacingTop=-1;spacingLeft=3;spacingRight=3;rotatable=0;labelPosition=right;points=[];portConstraint=eastwest;" parent="78961159f06e98e8-17" vertex="1">
          <mxGeometry y="52" width="160" height="8" as="geometry" />
        </mxCell>
        <mxCell id="78961159f06e98e8-122" style="edgeStyle=elbowEdgeStyle;html=1;labelBackgroundColor=none;startFill=0;startSize=8;endArrow=open;endFill=0;endSize=16;fontFamily=Verdana;fontSize=12;elbow=vertical;dashed=1;" parent="1" source="78961159f06e98e8-30" edge="1">
          <mxGeometry relative="1" as="geometry">
            <mxPoint x="630" y="220.2941176470589" as="targetPoint" />
            <Array as="points">
              <mxPoint x="620" y="220" />
            </Array>
          </mxGeometry>
        </mxCell>
        <mxCell id="78961159f06e98e8-30" value="Backend" style="swimlane;html=1;fontStyle=1;align=center;verticalAlign=top;childLayout=stackLayout;horizontal=1;startSize=26;horizontalStack=0;resizeParent=1;resizeLast=0;collapsible=1;marginBottom=0;swimlaneFillColor=#ffffff;rounded=0;shadow=0;comic=0;labelBackgroundColor=none;strokeWidth=1;fillColor=none;fontFamily=Verdana;fontSize=12" parent="1" vertex="1">
          <mxGeometry x="360" y="101.5" width="160" height="237" as="geometry" />
        </mxCell>
        <mxCell id="78961159f06e98e8-31" value="FastAPI" style="text;html=1;strokeColor=none;fillColor=none;align=left;verticalAlign=top;spacingLeft=4;spacingRight=4;whiteSpace=wrap;overflow=hidden;rotatable=0;points=[[0,0.5],[1,0.5]];portConstraint=eastwest;" parent="78961159f06e98e8-30" vertex="1">
          <mxGeometry y="26" width="160" height="26" as="geometry" />
        </mxCell>
        <mxCell id="78961159f06e98e8-38" value="" style="line;html=1;strokeWidth=1;fillColor=none;align=left;verticalAlign=middle;spacingTop=-1;spacingLeft=3;spacingRight=3;rotatable=0;labelPosition=right;points=[];portConstraint=eastwest;" parent="78961159f06e98e8-30" vertex="1">
          <mxGeometry y="52" width="160" height="8" as="geometry" />
        </mxCell>
        <mxCell id="78961159f06e98e8-121" style="edgeStyle=elbowEdgeStyle;html=1;labelBackgroundColor=none;startFill=0;startSize=8;endArrow=diamondThin;endFill=0;endSize=16;fontFamily=Verdana;fontSize=12;elbow=vertical;" parent="1" source="78961159f06e98e8-17" target="78961159f06e98e8-30" edge="1">
          <mxGeometry relative="1" as="geometry">
            <mxPoint x="250" y="259.88235294117635" as="sourcePoint" />
          </mxGeometry>
        </mxCell>
        <mxCell id="jgwLFewghBxrBhf2A3Yx-13" style="edgeStyle=orthogonalEdgeStyle;rounded=0;orthogonalLoop=1;jettySize=auto;html=1;exitX=0;exitY=0;exitDx=0;exitDy=67.5;exitPerimeter=0;entryX=1;entryY=0.75;entryDx=0;entryDy=0;" edge="1" parent="1" source="jgwLFewghBxrBhf2A3Yx-2" target="jgwLFewghBxrBhf2A3Yx-4">
          <mxGeometry relative="1" as="geometry" />
        </mxCell>
        <mxCell id="jgwLFewghBxrBhf2A3Yx-2" value="Database" style="shape=cylinder3;whiteSpace=wrap;html=1;boundedLbl=1;backgroundOutline=1;size=15;" vertex="1" parent="1">
          <mxGeometry x="540" y="480" width="70" height="100" as="geometry" />
        </mxCell>
        <mxCell id="jgwLFewghBxrBhf2A3Yx-3" value="Client" style="rounded=0;whiteSpace=wrap;html=1;" vertex="1" parent="1">
          <mxGeometry x="30" y="470" width="120" height="130" as="geometry" />
        </mxCell>
        <mxCell id="jgwLFewghBxrBhf2A3Yx-11" style="edgeStyle=orthogonalEdgeStyle;rounded=0;orthogonalLoop=1;jettySize=auto;html=1;entryX=1;entryY=0.25;entryDx=0;entryDy=0;exitX=0;exitY=0.25;exitDx=0;exitDy=0;" edge="1" parent="1" source="jgwLFewghBxrBhf2A3Yx-4" target="jgwLFewghBxrBhf2A3Yx-3">
          <mxGeometry relative="1" as="geometry" />
        </mxCell>
        <mxCell id="jgwLFewghBxrBhf2A3Yx-4" value="API" style="rounded=1;whiteSpace=wrap;html=1;" vertex="1" parent="1">
          <mxGeometry x="310" y="500" width="120" height="60" as="geometry" />
        </mxCell>
        <mxCell id="jgwLFewghBxrBhf2A3Yx-6" style="edgeStyle=orthogonalEdgeStyle;rounded=0;orthogonalLoop=1;jettySize=auto;html=1;exitX=1;exitY=0.5;exitDx=0;exitDy=0;entryX=-0.058;entryY=0.583;entryDx=0;entryDy=0;entryPerimeter=0;" edge="1" parent="1" source="jgwLFewghBxrBhf2A3Yx-3" target="jgwLFewghBxrBhf2A3Yx-4">
          <mxGeometry relative="1" as="geometry" />
        </mxCell>
        <mxCell id="jgwLFewghBxrBhf2A3Yx-7" style="edgeStyle=orthogonalEdgeStyle;rounded=0;orthogonalLoop=1;jettySize=auto;html=1;entryX=0;entryY=0.5;entryDx=0;entryDy=0;entryPerimeter=0;" edge="1" parent="1" source="jgwLFewghBxrBhf2A3Yx-4" target="jgwLFewghBxrBhf2A3Yx-2">
          <mxGeometry relative="1" as="geometry" />
        </mxCell>
        <mxCell id="jgwLFewghBxrBhf2A3Yx-20" value="REST_API" style="swimlane;startSize=20;horizontal=1;containerType=tree;newEdgeStyle={&quot;edgeStyle&quot;:&quot;elbowEdgeStyle&quot;,&quot;startArrow&quot;:&quot;none&quot;,&quot;endArrow&quot;:&quot;none&quot;};" vertex="1" parent="1">
          <mxGeometry x="630" y="110" width="910" height="280" as="geometry" />
        </mxCell>
        <mxCell id="jgwLFewghBxrBhf2A3Yx-22" value="" style="edgeStyle=elbowEdgeStyle;elbow=vertical;sourcePerimeterSpacing=0;targetPerimeterSpacing=0;startArrow=none;endArrow=none;rounded=0;curved=0;" edge="1" parent="jgwLFewghBxrBhf2A3Yx-20" source="jgwLFewghBxrBhf2A3Yx-23" target="jgwLFewghBxrBhf2A3Yx-25">
          <mxGeometry relative="1" as="geometry" />
        </mxCell>
        <UserObject label="Post" treeRoot="1" id="jgwLFewghBxrBhf2A3Yx-23">
          <mxCell style="whiteSpace=wrap;html=1;align=center;treeFolding=1;treeMoving=1;newEdgeStyle={&quot;edgeStyle&quot;:&quot;elbowEdgeStyle&quot;,&quot;startArrow&quot;:&quot;none&quot;,&quot;endArrow&quot;:&quot;none&quot;};" vertex="1" parent="jgwLFewghBxrBhf2A3Yx-20">
            <mxGeometry x="80" y="60" width="120" height="60" as="geometry" />
          </mxCell>
        </UserObject>
        <mxCell id="jgwLFewghBxrBhf2A3Yx-25" value="Suggested&amp;nbsp; Post" style="whiteSpace=wrap;html=1;align=center;verticalAlign=middle;treeFolding=1;treeMoving=1;newEdgeStyle={&quot;edgeStyle&quot;:&quot;elbowEdgeStyle&quot;,&quot;startArrow&quot;:&quot;none&quot;,&quot;endArrow&quot;:&quot;none&quot;};" vertex="1" parent="jgwLFewghBxrBhf2A3Yx-20">
          <mxGeometry x="160" y="170" width="100" height="60" as="geometry" />
        </mxCell>
        <mxCell id="jgwLFewghBxrBhf2A3Yx-24" value="Individual Post" style="whiteSpace=wrap;html=1;align=center;verticalAlign=middle;treeFolding=1;treeMoving=1;newEdgeStyle={&quot;edgeStyle&quot;:&quot;elbowEdgeStyle&quot;,&quot;startArrow&quot;:&quot;none&quot;,&quot;endArrow&quot;:&quot;none&quot;};" vertex="1" parent="jgwLFewghBxrBhf2A3Yx-20">
          <mxGeometry x="30" y="170" width="100" height="60" as="geometry" />
        </mxCell>
        <mxCell id="jgwLFewghBxrBhf2A3Yx-21" value="" style="edgeStyle=elbowEdgeStyle;elbow=vertical;sourcePerimeterSpacing=0;targetPerimeterSpacing=0;startArrow=none;endArrow=none;rounded=0;curved=0;" edge="1" parent="jgwLFewghBxrBhf2A3Yx-20" source="jgwLFewghBxrBhf2A3Yx-23" target="jgwLFewghBxrBhf2A3Yx-24">
          <mxGeometry relative="1" as="geometry" />
        </mxCell>
        <mxCell id="jgwLFewghBxrBhf2A3Yx-28" value="View" style="text;html=1;align=center;verticalAlign=middle;resizable=0;points=[];autosize=1;strokeColor=none;fillColor=none;" vertex="1" parent="jgwLFewghBxrBhf2A3Yx-20">
          <mxGeometry x="115" y="30" width="50" height="30" as="geometry" />
        </mxCell>
        <mxCell id="jgwLFewghBxrBhf2A3Yx-29" value="Create" style="text;html=1;align=center;verticalAlign=middle;resizable=0;points=[];autosize=1;strokeColor=none;fillColor=none;" vertex="1" parent="jgwLFewghBxrBhf2A3Yx-20">
          <mxGeometry x="390" y="30" width="60" height="30" as="geometry" />
        </mxCell>
        <mxCell id="jgwLFewghBxrBhf2A3Yx-39" value="" style="edgeStyle=elbowEdgeStyle;elbow=vertical;sourcePerimeterSpacing=0;targetPerimeterSpacing=0;startArrow=none;endArrow=none;rounded=0;curved=0;" edge="1" parent="jgwLFewghBxrBhf2A3Yx-20" source="jgwLFewghBxrBhf2A3Yx-40" target="jgwLFewghBxrBhf2A3Yx-41">
          <mxGeometry relative="1" as="geometry" />
        </mxCell>
        <UserObject label="Post" treeRoot="1" id="jgwLFewghBxrBhf2A3Yx-40">
          <mxCell style="whiteSpace=wrap;html=1;align=center;treeFolding=1;treeMoving=1;newEdgeStyle={&quot;edgeStyle&quot;:&quot;elbowEdgeStyle&quot;,&quot;startArrow&quot;:&quot;none&quot;,&quot;endArrow&quot;:&quot;none&quot;};" vertex="1" parent="jgwLFewghBxrBhf2A3Yx-20">
            <mxGeometry x="360" y="60" width="120" height="60" as="geometry" />
          </mxCell>
        </UserObject>
        <mxCell id="jgwLFewghBxrBhf2A3Yx-41" value="Projects" style="whiteSpace=wrap;html=1;align=center;verticalAlign=middle;treeFolding=1;treeMoving=1;newEdgeStyle={&quot;edgeStyle&quot;:&quot;elbowEdgeStyle&quot;,&quot;startArrow&quot;:&quot;none&quot;,&quot;endArrow&quot;:&quot;none&quot;};" vertex="1" parent="jgwLFewghBxrBhf2A3Yx-20">
          <mxGeometry x="440" y="170" width="100" height="60" as="geometry" />
        </mxCell>
        <mxCell id="jgwLFewghBxrBhf2A3Yx-42" value="Hobby" style="whiteSpace=wrap;html=1;align=center;verticalAlign=middle;treeFolding=1;treeMoving=1;newEdgeStyle={&quot;edgeStyle&quot;:&quot;elbowEdgeStyle&quot;,&quot;startArrow&quot;:&quot;none&quot;,&quot;endArrow&quot;:&quot;none&quot;};" vertex="1" parent="jgwLFewghBxrBhf2A3Yx-20">
          <mxGeometry x="310" y="170" width="100" height="60" as="geometry" />
        </mxCell>
        <mxCell id="jgwLFewghBxrBhf2A3Yx-43" value="" style="edgeStyle=elbowEdgeStyle;elbow=vertical;sourcePerimeterSpacing=0;targetPerimeterSpacing=0;startArrow=none;endArrow=none;rounded=0;curved=0;" edge="1" parent="jgwLFewghBxrBhf2A3Yx-20" source="jgwLFewghBxrBhf2A3Yx-40" target="jgwLFewghBxrBhf2A3Yx-42">
          <mxGeometry relative="1" as="geometry" />
        </mxCell>
        <mxCell id="jgwLFewghBxrBhf2A3Yx-44" value="" style="edgeStyle=elbowEdgeStyle;elbow=vertical;sourcePerimeterSpacing=0;targetPerimeterSpacing=0;startArrow=none;endArrow=none;rounded=0;curved=0;" edge="1" parent="jgwLFewghBxrBhf2A3Yx-20" source="jgwLFewghBxrBhf2A3Yx-45" target="jgwLFewghBxrBhf2A3Yx-46">
          <mxGeometry relative="1" as="geometry" />
        </mxCell>
        <UserObject label="Post" treeRoot="1" id="jgwLFewghBxrBhf2A3Yx-45">
          <mxCell style="whiteSpace=wrap;html=1;align=center;treeFolding=1;treeMoving=1;newEdgeStyle={&quot;edgeStyle&quot;:&quot;elbowEdgeStyle&quot;,&quot;startArrow&quot;:&quot;none&quot;,&quot;endArrow&quot;:&quot;none&quot;};" vertex="1" parent="jgwLFewghBxrBhf2A3Yx-20">
            <mxGeometry x="640" y="60" width="120" height="60" as="geometry" />
          </mxCell>
        </UserObject>
        <mxCell id="jgwLFewghBxrBhf2A3Yx-46" value="Post ID&amp;nbsp;" style="whiteSpace=wrap;html=1;align=center;verticalAlign=middle;treeFolding=1;treeMoving=1;newEdgeStyle={&quot;edgeStyle&quot;:&quot;elbowEdgeStyle&quot;,&quot;startArrow&quot;:&quot;none&quot;,&quot;endArrow&quot;:&quot;none&quot;};" vertex="1" parent="jgwLFewghBxrBhf2A3Yx-20">
          <mxGeometry x="650" y="160" width="100" height="60" as="geometry" />
        </mxCell>
        <mxCell id="jgwLFewghBxrBhf2A3Yx-49" value="Delete&amp;nbsp;" style="text;html=1;align=center;verticalAlign=middle;resizable=0;points=[];autosize=1;strokeColor=none;fillColor=none;" vertex="1" parent="jgwLFewghBxrBhf2A3Yx-20">
          <mxGeometry x="670" y="30" width="60" height="30" as="geometry" />
        </mxCell>
      </root>
    </mxGraphModel>
  </diagram>
</mxfile>
